<svg width="1440" height="100" viewBox="0 0 1440 100" fill="none" xmlns="http://www.w3.org/2000/svg">
<g clip-path="url(#clip0_5962_199367)">
<rect width="1440" height="100" fill="#F8F8F8"/>
<rect width="1440" height="100" fill="#F1F2F6"/>
<g clip-path="url(#clip1_5962_199367)">
<path d="M662.452 27.3108L656.99 19.0082C656.9 18.8832 656.834 18.6556 656.835 18.502L656.863 14.1528C656.867 13.306 656.17 12.6142 655.308 12.6104C654.447 12.6066 653.738 13.2972 653.738 14.1385L653.715 18.4821C653.714 18.6357 653.643 18.8592 653.567 18.9844L647.999 27.2413C647.919 27.3722 647.933 27.563 648.028 27.6825L649.421 29.6153C649.52 29.7291 649.68 29.7248 649.768 29.6077L653.515 24.5349C653.606 24.4122 653.687 24.4446 653.684 24.5885L653.652 31.0119C653.655 31.1599 653.528 31.2829 653.378 31.2858L652.702 31.2788C652.555 31.2761 652.428 31.3991 652.427 31.5527L652.418 32.6874C652.42 32.8354 652.546 32.9601 652.696 32.9572L657.716 32.9829C657.866 32.98 657.999 32.8611 658 32.7075L658.004 31.5687C658.005 31.4151 657.886 31.2945 657.73 31.2933L657.059 31.2904C656.913 31.2877 656.784 31.1686 656.785 31.015L656.813 24.5973C656.814 24.4437 656.891 24.4221 656.985 24.5416L660.681 29.6462C660.775 29.7656 660.931 29.7668 661.03 29.6579L662.438 27.7385C662.527 27.631 662.542 27.4358 662.452 27.3108Z" fill="#DF1931"/>
<path d="M642.406 41.577L636.119 33.8426C636.026 33.719 635.827 33.5853 635.679 33.5376L631.473 32.18C630.655 31.9144 630.207 31.0446 630.476 30.2399C630.744 29.4352 631.634 28.9945 632.446 29.2622L636.645 30.622C636.793 30.6697 637.031 30.6746 637.176 30.6434L646.902 28.0785C647.054 28.0452 647.233 28.1195 647.319 28.2453L648.744 30.1597C648.823 30.2875 648.768 30.4358 648.627 30.4801L642.549 32.3604C642.402 32.4069 642.407 32.4923 642.547 32.5355L648.756 34.5489C648.898 34.5987 649.056 34.5196 649.107 34.38L649.313 33.7476C649.357 33.6102 649.516 33.531 649.664 33.5787L650.762 33.9307C650.904 33.9805 650.985 34.1368 650.935 34.2764L649.375 38.9649C649.324 39.1044 649.168 39.1902 649.019 39.1425L647.919 38.7839C647.77 38.7362 647.692 38.5864 647.74 38.4403L647.949 37.8145C647.992 37.6771 647.918 37.5186 647.77 37.4709L641.568 35.4554C641.419 35.4077 641.374 35.4729 641.46 35.5986L645.219 40.6682C645.304 40.7939 645.256 40.94 645.12 40.9976L642.823 41.7C642.691 41.7488 642.498 41.7006 642.406 41.577Z" fill="#DF1931"/>
<path d="M654.498 51.2941L645.094 54.8084C644.946 54.8568 644.756 55.0021 644.664 55.1266L642.067 58.6479C641.56 59.3328 640.581 59.485 639.884 58.9869C639.188 58.4888 639.033 57.5203 639.54 56.8423L642.137 53.328C642.229 53.2034 642.306 52.9821 642.32 52.8368L642.806 42.944C642.82 42.7918 642.947 42.6465 643.094 42.605L645.382 41.8579C645.53 41.8233 645.657 41.9201 645.657 42.0654L645.622 48.3332C645.622 48.4853 645.706 48.5061 645.79 48.3885L649.634 43.1931C649.725 43.0755 649.697 42.9025 649.578 42.8126L649.029 42.4252C648.909 42.3421 648.881 42.1692 648.972 42.0447L649.648 41.1246C649.74 41.007 649.916 40.9793 650.035 41.0692L654.097 43.9679C654.217 44.0578 654.252 44.2308 654.16 44.3553L653.477 45.2754C653.386 45.3999 653.217 45.4276 653.09 45.3377L652.548 44.9502C652.429 44.8672 652.253 44.888 652.161 45.0125L648.318 50.201C648.226 50.3255 648.275 50.3878 648.423 50.3463L654.477 48.3816C654.625 48.3401 654.752 48.43 654.766 48.5753L654.745 50.9412C654.752 51.0796 654.646 51.2456 654.498 51.2941Z" fill="#DF1931"/>
<path d="M655.932 51.2941L665.336 54.8084C665.484 54.8569 665.674 55.0021 665.766 55.1267L668.363 58.6479C668.87 59.3328 669.848 59.485 670.545 58.9869C671.242 58.4888 671.397 57.5203 670.89 56.8423L668.293 53.328C668.201 53.2034 668.124 52.9821 668.11 52.8368L667.624 42.944C667.61 42.7918 667.483 42.6465 667.335 42.605L665.047 41.8579C664.9 41.8233 664.773 41.9201 664.773 42.0654L664.808 48.3332C664.808 48.4854 664.724 48.5061 664.639 48.3885L660.796 43.1931C660.704 43.0755 660.732 42.9025 660.852 42.8126L661.401 42.4252C661.521 42.3421 661.549 42.1692 661.457 42.0447L660.782 41.1246C660.69 41.007 660.514 40.9793 660.394 41.0692L656.333 43.9679C656.213 44.0578 656.178 44.2308 656.269 44.3553L656.952 45.2754C657.044 45.3999 657.213 45.4276 657.339 45.3377L657.881 44.9502C658.001 44.8672 658.177 44.888 658.269 45.0125L662.112 50.201C662.204 50.3255 662.154 50.3878 662.007 50.3463L655.953 48.3816C655.805 48.3401 655.678 48.43 655.664 48.5753L655.685 50.9413C655.678 51.0796 655.784 51.2456 655.932 51.2941Z" fill="#DF1931"/>
<path d="M668.032 41.5752L674.319 33.8408C674.411 33.7171 674.61 33.5835 674.759 33.5358L678.964 32.1782C679.783 31.9126 680.23 31.0427 679.962 30.2381C679.694 29.4334 678.804 28.9927 677.992 29.2604L673.793 30.6201C673.644 30.6678 673.406 30.6728 673.261 30.6416L663.535 28.0766C663.384 28.0434 663.204 28.1177 663.119 28.2434L661.694 30.1578C661.615 30.2857 661.67 30.4339 661.81 30.4783L667.889 32.3586C668.036 32.405 668.03 32.4905 667.89 32.5337L661.682 34.5471C661.54 34.5969 661.381 34.5177 661.331 34.3782L661.124 33.7458C661.08 33.6083 660.922 33.5292 660.773 33.5769L659.675 33.9289C659.533 33.9787 659.452 34.135 659.503 34.2745L661.063 38.9631C661.113 39.1026 661.27 39.1883 661.418 39.1406L662.519 38.7821C662.667 38.7344 662.746 38.5846 662.698 38.4385L662.489 37.8126C662.445 37.6752 662.519 37.5168 662.668 37.4691L668.87 35.4536C669.018 35.4059 669.063 35.471 668.978 35.5968L665.219 40.6663C665.133 40.7921 665.182 40.9382 665.318 40.9957L667.615 41.6982C667.746 41.747 667.94 41.6988 668.032 41.5752Z" fill="#DF1931"/>
<path d="M712.581 40.7373C711.552 39.4054 709.911 39.3153 709.147 39.3153H706.345C706.009 39.3153 705.397 39.3353 704.806 39.7159C704.572 39.8661 704.042 40.2766 703.91 41.0277L701.678 53.475C701.668 53.5251 701.668 53.5752 701.668 53.6252C701.668 54.156 702.106 54.5866 702.646 54.5866C703.125 54.5866 703.522 54.2461 703.604 53.8055L704.093 51.0917H706.865C708.709 51.1017 710.227 50.7312 711.43 49.3092C712.52 48.0174 712.876 46.5053 713.121 45.1134C713.223 44.5226 713.335 43.8616 713.335 43.1707C713.335 42.3495 713.172 41.4783 712.581 40.7373ZM711.042 45.1034C710.798 46.5053 710.472 47.5167 709.922 48.1676C709.31 48.8987 708.363 49.2491 707.466 49.2491H704.419L705.835 41.3281C705.866 41.218 705.835 41.278 705.897 41.218C705.927 41.1979 705.968 41.1779 705.999 41.1679C706.009 41.1579 706.019 41.1579 706.029 41.1579H709.208C709.646 41.1579 710.085 41.258 710.441 41.4583C710.788 41.6686 711.053 41.949 711.175 42.4196C711.226 42.6099 711.256 42.8602 711.256 43.2007C711.256 43.6413 711.195 44.2522 711.042 45.1034Z" fill="#353F47"/>
<path d="M778.952 40.7373C777.913 39.4054 776.282 39.3153 775.518 39.3153H772.716C772.38 39.3153 771.768 39.3353 771.177 39.7159C770.943 39.8661 770.413 40.2766 770.281 41.0277L768.049 53.475C768.039 53.5251 768.039 53.5752 768.039 53.6252C768.039 54.156 768.477 54.5866 769.017 54.5866C769.496 54.5866 769.894 54.2461 769.975 53.8055L770.464 51.0917H773.236C775.08 51.1017 776.598 50.7312 777.801 49.3092C778.891 48.0174 779.248 46.5053 779.492 45.1134C779.594 44.5226 779.706 43.8616 779.706 43.1707C779.706 42.3495 779.533 41.4783 778.952 40.7373ZM777.413 45.1034C777.169 46.5053 776.843 47.5167 776.293 48.1676C775.681 48.8987 774.734 49.2491 773.837 49.2491H770.79L772.217 41.3281C772.247 41.218 772.207 41.278 772.278 41.218C772.308 41.1979 772.339 41.1779 772.37 41.1679C772.38 41.1579 772.39 41.1579 772.4 41.1579H775.579C776.017 41.1579 776.466 41.258 776.812 41.4583C777.159 41.6686 777.424 41.949 777.546 42.4196C777.597 42.6099 777.638 42.8602 777.638 43.2007C777.627 43.6413 777.566 44.2522 777.413 45.1034Z" fill="#353F47"/>
<path d="M690.458 40.2466C689.989 39.6257 689.154 39.3153 688.298 39.3153C688.298 39.3153 683.285 39.3153 683.274 39.3153C682.755 39.3153 682.337 39.7259 682.337 40.2366C682.337 40.7473 682.755 41.1579 683.274 41.1579H688.074C688.461 41.1579 688.695 41.3281 688.787 41.4583C688.858 41.5484 688.93 41.8889 688.93 42.1593C688.93 42.2694 688.919 42.3696 688.909 42.4397L688.685 43.7014H684.222C683.56 43.7014 682.612 43.7815 681.787 44.3623C680.727 45.1334 680.391 46.295 680.228 47.2163C680.177 47.5067 680.105 47.9473 680.105 48.438C680.105 49.1089 680.228 49.9101 680.829 50.4909C681.532 51.1117 682.429 51.0917 683.06 51.1017H687.33C687.707 51.0917 688.359 51.1217 688.919 50.7012C689.48 50.2505 689.602 49.6096 689.653 49.3092L690.825 42.7901C690.876 42.5098 690.927 42.1693 690.927 41.8188C690.917 41.2881 690.825 40.7173 690.458 40.2466ZM687.687 49.1089C687.676 49.159 687.676 49.179 687.676 49.1891C687.676 49.1991 687.666 49.1991 687.646 49.2091C687.625 49.2291 687.534 49.2491 687.401 49.2491H682.918C682.592 49.2491 682.368 49.0989 682.286 48.9688C682.215 48.8586 682.154 48.6183 682.154 48.3178C682.154 48.0375 682.194 47.707 682.255 47.3966C682.378 46.6655 682.571 46.1548 682.796 45.9345C682.938 45.7843 683.285 45.534 683.784 45.534H688.318L687.687 49.1089Z" fill="#353F47"/>
<path d="M789.949 40.0063C788.992 39.4054 787.799 39.3153 786.984 39.3153C785.833 39.3153 784.345 39.4555 783.071 40.3668C781.299 41.6385 780.881 43.6413 780.595 45.1735C780.443 45.9946 780.32 46.7757 780.32 47.5167C780.32 48.2277 780.443 48.9187 780.82 49.5395C781.574 50.8113 782.898 51.0917 783.846 51.0917C783.856 51.0917 783.876 51.0917 783.887 51.0917H788.91C789.43 51.0917 789.848 50.6811 789.848 50.1704C789.848 49.6597 789.43 49.2491 788.91 49.2491C788.9 49.2491 784.06 49.2491 784.06 49.2491C783.428 49.2391 783.061 49.0489 782.807 48.7785C782.552 48.5081 782.409 48.1176 782.368 47.747C782.358 47.6669 782.358 47.5668 782.358 47.4566C782.358 47.0361 782.43 46.4753 782.511 46.0046H788.9C789.257 45.9946 789.868 45.9746 790.398 45.584C791.08 45.0633 791.213 44.2221 791.284 43.8917C791.345 43.5412 791.376 43.2107 791.376 42.9103C791.396 41.1078 790.337 40.2466 789.949 40.0063ZM789.236 43.8016C789.226 43.8817 789.195 44.0118 789.155 44.092C789.094 44.1821 789.124 44.152 789.083 44.1621H782.868C783.041 43.381 783.245 42.8202 783.662 42.2894C784.559 41.1679 785.507 41.1579 786.628 41.1378C787.117 41.1378 787.596 41.1479 788.003 41.248C788.411 41.3582 788.717 41.5284 788.961 41.8889C789.134 42.1493 789.307 42.5498 789.307 43.1406C789.297 43.3509 789.277 43.5612 789.236 43.8016Z" fill="#353F47"/>
<path d="M701.258 40.6773C700.402 39.5558 699.159 39.3054 697.998 39.3054C697.998 39.3054 693.759 39.3054 693.748 39.3054C693.229 39.3054 692.811 39.716 692.811 40.2267C692.811 40.7374 693.229 41.148 693.748 41.148H697.814C698.171 41.148 698.589 41.168 698.935 41.3082C699.281 41.4484 699.557 41.6587 699.75 42.1294C699.862 42.4097 699.934 42.8604 699.934 43.321C699.934 43.5513 699.923 43.7716 699.893 43.992H693.066C692.556 43.992 692.128 44.4025 692.128 44.9132C692.128 45.4239 692.546 45.8345 693.066 45.8345C693.076 45.8345 699.546 45.8345 699.546 45.8345C699.373 46.5455 699.078 47.4468 698.843 47.8673C698.181 49.059 697.06 49.2593 696.174 49.2693C696.174 49.2693 691.823 49.2693 691.812 49.2693C691.293 49.2693 690.875 49.6799 690.875 50.1906C690.875 50.7013 691.293 51.1119 691.812 51.1119H695.511C696.703 51.1119 698.395 51.0418 699.811 49.6298C700.932 48.4882 701.442 46.916 701.778 45.0634C701.91 44.3024 701.982 43.6615 701.982 43.1207C701.971 42.0192 701.707 41.2682 701.258 40.6773Z" fill="#353F47"/>
<path d="M736.432 40.6773C735.576 39.5558 734.333 39.3054 733.171 39.3054C733.171 39.3054 728.932 39.3054 728.922 39.3054C728.402 39.3054 727.984 39.716 727.984 40.2267C727.984 40.7374 728.402 41.148 728.922 41.148H732.987C733.344 41.148 733.762 41.168 734.108 41.3082C734.455 41.4484 734.73 41.6587 734.924 42.1294C735.036 42.4097 735.107 42.8604 735.107 43.321C735.107 43.5513 735.097 43.7716 735.066 43.992H728.239C727.719 43.992 727.302 44.4025 727.302 44.9132C727.302 45.4239 727.719 45.8345 728.239 45.8345C728.249 45.8345 734.72 45.8345 734.72 45.8345C734.546 46.5455 734.251 47.4468 734.017 47.8673C733.354 49.059 732.233 49.2593 731.357 49.2693C731.357 49.2693 727.006 49.2693 726.996 49.2693C726.476 49.2693 726.059 49.6799 726.059 50.1906C726.059 50.7013 726.476 51.1119 726.986 51.1119H730.685C731.877 51.1119 733.568 51.0418 734.985 49.6298C736.105 48.4882 736.615 46.916 736.951 45.0634C737.084 44.3024 737.155 43.6615 737.155 43.1207C737.155 42.0192 736.88 41.2682 736.432 40.6773Z" fill="#353F47"/>
<path d="M726.111 43.4111C726.111 42.4297 725.928 41.3582 725.235 40.5371C724.155 39.3053 722.433 39.1952 721.006 39.1852C719.579 39.1852 717.817 39.3254 716.4 40.477C714.831 41.7788 714.322 43.8116 714.097 45.0534C713.975 45.7443 713.914 46.3452 713.914 46.8859C713.914 48.2678 714.281 49.2091 714.78 49.81C715.983 51.1819 718 51.1919 718.999 51.2019C720.007 51.2019 722.025 51.1518 723.604 49.8701C724.542 49.089 725.489 47.647 725.928 45.2136C726.019 44.7029 726.111 44.072 726.111 43.4111ZM723.869 45.1635C723.716 46.0447 723.421 47.5969 722.473 48.4381C721.566 49.2592 720.283 49.3794 719.172 49.3794C718.051 49.3894 716.828 49.2392 716.309 48.5082C716.033 48.1477 715.921 47.6069 715.921 47.0161C715.921 46.4052 716.033 45.7744 716.115 45.3237C716.278 44.3824 716.614 42.7301 717.511 41.919C718.367 41.1379 719.793 41.0177 720.823 41.0277C721.852 41.0077 723.238 41.1579 723.716 41.8589C723.961 42.1894 724.073 42.7401 724.073 43.331C724.083 43.9819 723.961 44.6728 723.869 45.1635Z" fill="#353F47"/>
<path d="M742.443 44.6629L747.1 40.9577C747.344 40.7975 747.517 40.5171 747.517 40.2067C747.517 39.716 747.11 39.3054 746.6 39.3054C746.386 39.3054 746.193 39.3855 746.04 39.5057L741.23 43.2709C741.016 43.4512 740.751 43.6715 740.517 43.9419L741.139 40.4771C741.149 40.407 741.159 40.3469 741.159 40.2668C741.159 39.736 740.721 39.3054 740.181 39.3054C739.702 39.3054 739.305 39.6459 739.223 40.0865L737.45 49.9603C737.44 50.0103 737.43 50.0704 737.43 50.1205C737.43 50.6512 737.868 51.0818 738.408 51.0818C738.887 51.0818 739.274 50.7514 739.366 50.3007L740.13 46.0448C740.232 46.2351 740.364 46.4253 740.537 46.6156L744.196 50.6813C744.379 50.9216 744.674 51.0818 745.011 51.0818C745.581 51.0818 746.04 50.6312 746.04 50.0704C746.04 49.8101 745.938 49.5797 745.775 49.3995L742.117 45.3338C742.107 45.3238 742.066 45.2537 742.035 45.1936C742.015 45.1636 742.005 45.1335 742.005 45.1035C742.005 45.0935 742.005 45.0935 742.005 45.0835C742.005 45.0735 742.015 45.0634 742.025 45.0534C742.097 44.9533 742.3 44.773 742.443 44.6629Z" fill="#353F47"/>
<path d="M768.315 40.0264C768.172 39.6959 767.683 39.2954 766.868 39.3054H760.795C759.98 39.2954 759.46 39.6659 759.246 39.9363C758.889 40.3669 758.787 40.8876 758.716 41.2481L757.157 49.9502C757.147 50.0003 757.137 50.0603 757.137 50.1104C757.137 50.6412 757.575 51.0718 758.115 51.0718C758.594 51.0718 758.991 50.7313 759.073 50.2907L760.672 41.3983C760.683 41.3182 760.703 41.2281 760.734 41.168C760.734 41.158 760.734 41.158 760.744 41.158C760.754 41.158 760.754 41.158 760.764 41.1479C760.785 41.1479 760.795 41.1379 760.805 41.1379H760.815H766.44C766.43 41.168 766.43 41.208 766.419 41.2481L764.86 49.9702C764.85 50.0203 764.85 50.0704 764.85 50.1204C764.85 50.6512 765.288 51.0818 765.828 51.0818C766.318 51.0818 766.715 50.7313 766.786 50.2807L768.386 41.4083C768.417 41.218 768.457 40.9777 768.457 40.7173C768.457 40.497 768.427 40.2667 768.315 40.0264Z" fill="#353F47"/>
<path d="M757.537 40.2267C757.537 39.716 757.12 39.3054 756.6 39.3054C756.59 39.3054 753.441 39.3054 753.441 39.3054C751.607 39.3054 750.313 39.9263 749.488 40.6172C747.969 41.9191 747.562 43.7616 747.297 45.2537C747.164 45.9847 747.062 46.6657 747.062 47.3066C747.062 48.0877 747.215 48.8387 747.664 49.4996C748.244 50.3708 749.345 51.0718 751.016 51.0718H755.072C755.591 51.0718 756.009 50.6612 756.009 50.1505C756.009 49.6398 755.591 49.2292 755.072 49.2292C755.061 49.2292 751.76 49.2292 751.76 49.2292C751.291 49.2292 750.69 49.1792 750.211 48.9889C749.722 48.7886 749.376 48.4982 749.212 47.9274C749.172 47.7772 749.151 47.5169 749.151 47.2164C749.151 46.6557 749.233 45.9847 749.304 45.5441C749.396 45.0434 749.722 43.6014 749.946 43.0907C750.456 41.9491 751.515 41.148 753.135 41.138H756.6C757.12 41.148 757.537 40.7374 757.537 40.2267Z" fill="#353F47"/>
<path d="M812 40.2267C812 39.716 811.582 39.3054 811.062 39.3054C811.052 39.3054 807.904 39.3054 807.904 39.3054C806.07 39.3054 804.775 39.9263 803.95 40.6172C802.432 41.9191 802.024 43.7616 801.759 45.2537C801.627 45.9847 801.535 46.6657 801.535 47.3066C801.535 48.0877 801.688 48.8387 802.136 49.4996C802.717 50.3708 803.818 51.0718 805.489 51.0718H809.544C810.064 51.0718 810.482 50.6612 810.482 50.1505C810.482 49.6398 810.064 49.2292 809.544 49.2292C809.534 49.2292 806.233 49.2292 806.233 49.2292C805.754 49.2292 805.163 49.1792 804.684 48.9889C804.195 48.7886 803.848 48.4982 803.685 47.9274C803.644 47.7772 803.624 47.5169 803.624 47.2164C803.624 46.6557 803.695 45.9847 803.777 45.5441C803.869 45.0434 804.195 43.6014 804.419 43.0907C804.928 41.9491 805.988 41.148 807.608 41.138H811.073C811.582 41.148 812 40.7374 812 40.2267Z" fill="#353F47"/>
<path d="M802.205 40.2267C802.205 39.716 801.788 39.3054 801.268 39.3054C801.258 39.3054 798.109 39.3054 798.109 39.3054C796.275 39.3054 794.981 39.9263 794.156 40.6172C792.637 41.9191 792.23 43.7616 791.965 45.2537C791.832 45.9847 791.73 46.6657 791.73 47.3066C791.73 48.0877 791.883 48.8387 792.332 49.4996C792.912 50.3708 794.023 51.0718 795.684 51.0718H799.739C800.259 51.0718 800.677 50.6612 800.677 50.1505C800.677 49.6398 800.259 49.2292 799.739 49.2292C799.729 49.2292 796.428 49.2292 796.428 49.2292C795.959 49.2292 795.358 49.1792 794.879 48.9889C794.4 48.7886 794.043 48.4982 793.88 47.9274C793.84 47.7772 793.819 47.5169 793.819 47.2164C793.819 46.6557 793.891 45.9847 793.972 45.5441C794.064 45.0434 794.39 43.6014 794.614 43.0907C795.124 41.9491 796.183 41.148 797.803 41.138H801.268C801.788 41.148 802.205 40.7374 802.205 40.2267Z" fill="#353F47"/>
</g>
<g opacity="0.1">
<path d="M1408.99 27.326L1387.41 -2.63511C1387.05 -3.08483 1386.77 -3.92154 1386.75 -4.49433L1386.05 -20.7114C1385.91 -23.8688 1383.22 -26.3214 1380.06 -26.1798C1376.9 -26.0382 1374.42 -23.3357 1374.58 -20.1998L1375.29 -4.00427C1375.31 -3.43148 1375.09 -2.58559 1374.83 -2.10477L1355.91 29.6806C1355.64 30.183 1355.72 30.8915 1356.09 31.3197L1361.56 38.2726C1361.95 38.6793 1362.53 38.6339 1362.83 38.1816L1375.66 18.5946C1375.98 18.1207 1376.28 18.2269 1376.29 18.7639L1377.36 42.7134C1377.39 43.2647 1376.95 43.7462 1376.4 43.7843L1373.92 43.8802C1373.38 43.8967 1372.93 44.3783 1372.96 44.951L1373.13 49.1825C1373.17 49.7338 1373.65 50.1758 1374.2 50.1378L1392.64 49.3261C1393.19 49.2881 1393.66 48.8207 1393.63 48.2479L1393.44 44.0022C1393.42 43.4294 1392.95 43.0016 1392.38 43.0254L1389.92 43.1355C1389.38 43.152 1388.88 42.7315 1388.86 42.1587L1387.78 18.2307C1387.76 17.658 1388.04 17.5637 1388.41 17.9919L1402.91 36.3519C1403.28 36.7801 1403.86 36.7563 1404.2 36.3324L1409.02 28.9228C1409.32 28.5062 1409.34 27.7757 1408.99 27.326Z" fill="#DF1931"/>
<path d="M1338 84.1304L1313.5 56.4364C1313.14 55.9921 1312.38 55.5299 1311.83 55.3791L1296.13 51.0788C1293.08 50.2368 1291.28 47.0753 1292.11 44.0272C1292.95 40.9792 1296.14 39.1755 1299.17 40.0266L1314.84 44.3359C1315.39 44.4868 1316.27 44.4622 1316.79 44.3198L1352.04 33C1352.59 32.8485 1353.26 33.0931 1353.6 33.5464L1359.18 40.4248C1359.49 40.8873 1359.32 41.4497 1358.81 41.6404L1336.84 49.7486C1336.3 49.9484 1336.34 50.2658 1336.86 50.4016L1360.03 56.7842C1360.56 56.9441 1361.13 56.6203 1361.29 56.0912L1361.93 53.6963C1362.06 53.1762 1362.63 52.8524 1363.19 53.0033L1367.28 54.1168C1367.81 54.2767 1368.14 54.845 1367.98 55.3742L1363.11 73.1333C1362.95 73.6625 1362.39 74.0105 1361.84 73.8596L1357.73 72.7219C1357.18 72.571 1356.86 72.0269 1357.01 71.4736L1357.67 69.1029C1357.8 68.5828 1357.5 68.0054 1356.94 67.8546L1333.8 61.4629C1333.25 61.312 1333.09 61.5631 1333.43 62.0164L1348.16 80.234C1348.5 80.6874 1348.35 81.2407 1347.86 81.4798L1339.56 84.5136C1339.08 84.7195 1338.36 84.5747 1338 84.1304Z" fill="#DF1931"/>
<path d="M1384.19 118.165L1350.3 132.966C1349.77 133.173 1349.1 133.749 1348.78 134.23L1339.89 147.826C1338.16 150.47 1334.59 151.214 1331.94 149.484C1329.29 147.753 1328.54 144.171 1330.28 141.552L1339.17 127.982C1339.49 127.501 1339.73 126.662 1339.76 126.118L1339.72 89.1536C1339.75 88.5838 1340.19 88.0193 1340.72 87.8379L1348.98 84.6391C1349.52 84.4834 1350 84.8215 1350.03 85.3631L1351.05 108.733C1351.08 109.301 1351.39 109.363 1351.68 108.909L1364.84 88.8473C1365.16 88.3924 1365.02 87.7528 1364.56 87.4392L1362.48 86.0943C1362.02 85.8065 1361.89 85.1669 1362.2 84.6862L1364.51 81.1342C1364.83 80.6793 1365.47 80.5443 1365.93 80.8579L1381.37 90.9285C1381.83 91.2421 1381.99 91.8805 1381.68 92.3612L1379.34 95.9145C1379.02 96.3952 1378.41 96.5289 1377.93 96.2166L1375.87 94.8704C1375.41 94.5826 1374.77 94.6918 1374.45 95.1725L1361.29 115.208C1360.98 115.689 1361.17 115.912 1361.71 115.731L1383.58 107.312C1384.11 107.131 1384.59 107.443 1384.67 107.982L1385.03 116.806C1385.08 117.32 1384.72 117.958 1384.19 118.165Z" fill="#DF1931"/>
<path d="M1389.45 117.906L1424.63 129.306C1425.18 129.46 1425.91 129.967 1426.26 130.415L1436.45 143.071C1438.44 145.532 1442.06 145.923 1444.52 143.94C1446.99 141.957 1447.38 138.319 1445.4 135.883L1435.21 123.253C1434.85 122.805 1434.53 121.994 1434.45 121.455L1430.85 84.6663C1430.77 84.1015 1430.28 83.5829 1429.73 83.4549L1421.19 81.0835C1420.64 80.9813 1420.2 81.3652 1420.22 81.9068L1421.5 105.264C1421.53 105.831 1421.22 105.924 1420.89 105.501L1405.82 86.8294C1405.47 86.4075 1405.54 85.7577 1405.96 85.4008L1407.91 83.8574C1408.33 83.5263 1408.4 82.8766 1408.04 82.4289L1405.39 79.1214C1405.04 78.6995 1404.38 78.6282 1403.96 78.9851L1389.58 90.5246C1389.16 90.8815 1389.06 91.5325 1389.42 91.9802L1392.09 95.2865C1392.45 95.7341 1393.08 95.8067 1393.53 95.4486L1395.45 93.9064C1395.87 93.5753 1396.52 93.6209 1396.88 94.0685L1411.94 112.714C1412.3 113.162 1412.13 113.403 1411.58 113.275L1388.99 107.046C1388.44 106.918 1387.99 107.276 1387.97 107.82L1388.48 116.636C1388.48 117.153 1388.9 117.753 1389.45 117.906Z" fill="#DF1931"/>
<path d="M1432.1 79.4894L1453.77 49.5216C1454.08 49.044 1454.79 48.5099 1455.33 48.3052L1470.52 42.484C1473.48 41.346 1474.96 38.0226 1473.83 35.0716C1472.69 32.1206 1469.34 30.6389 1466.41 31.7835L1451.24 37.6114C1450.71 37.8161 1449.83 37.8775 1449.3 37.7876L1413.11 29.985C1412.55 29.8884 1411.9 30.1979 1411.61 30.6822L1406.73 38.076C1406.47 38.5669 1406.69 39.1095 1407.22 39.2494L1429.88 45.1593C1430.43 45.3059 1430.43 45.6254 1429.92 45.8117L1407.49 54.4396C1406.98 54.6509 1406.38 54.3845 1406.17 53.8736L1405.3 51.5534C1405.11 51.0491 1404.52 50.7827 1403.98 50.9873L1400.01 52.4979C1399.5 52.7092 1399.23 53.3067 1399.44 53.8176L1406.03 71.0126C1406.24 71.5236 1406.83 71.8149 1407.37 71.6103L1411.34 70.0747C1411.88 69.8701 1412.14 69.2976 1411.94 68.7616L1411.06 66.4664C1410.87 65.9621 1411.11 65.358 1411.65 65.1534L1434.05 56.5188C1434.59 56.3142 1434.77 56.5489 1434.48 57.0332L1421.6 76.6103C1421.31 77.0945 1421.52 77.6305 1422.03 77.8203L1430.59 80.0234C1431.08 80.1816 1431.78 79.967 1432.1 79.4894Z" fill="#DF1931"/>
</g>
<g opacity="0.1">
<path d="M1200.41 8.84584L1183.16 2.11802C1182.9 2.00284 1182.46 1.96967 1182.18 2.02927L1174.21 3.7024C1172.65 4.02582 1171.13 3.03033 1170.8 1.48162C1170.48 -0.067094 1171.49 -1.59893 1173.03 -1.91278L1180.99 -3.57633C1181.27 -3.63592 1181.66 -3.84696 1181.86 -4.03075L1194.96 -17.1286C1195.17 -17.3219 1195.53 -17.3669 1195.78 -17.2421L1199.84 -15.4563C1200.09 -15.3219 1200.14 -15.0316 1199.96 -14.8305L1192.02 -6.19618C1191.83 -5.98547 1191.92 -5.8526 1192.19 -5.91129L1203.96 -8.36635C1204.23 -8.41637 1204.41 -8.69052 1204.36 -8.96256L1204.1 -10.1758C1204.04 -10.4383 1204.22 -10.7124 1204.5 -10.772L1206.58 -11.2128C1206.85 -11.2628 1207.13 -11.0842 1207.18 -10.8122L1209.07 -1.79192C1209.12 -1.51989 1208.95 -1.23705 1208.67 -1.17745L1206.58 -0.745312C1206.3 -0.685719 1206.04 -0.855675 1205.98 -1.13639L1205.72 -2.34094C1205.67 -2.6034 1205.4 -2.79161 1205.12 -2.73202L1193.35 -0.286541C1193.07 -0.226948 1193.06 -0.0800012 1193.31 0.0447632L1204.04 4.78746C1204.29 4.91222 1204.35 5.19294 1204.19 5.41143L1201.18 8.66108C1201.02 8.86132 1200.67 8.96103 1200.41 8.84584Z" fill="#DF1931"/>
<path d="M1228.75 13.4406L1217.05 27.7788C1216.86 27.9931 1216.69 28.403 1216.66 28.6887L1215.81 36.7751C1215.64 38.3494 1214.22 39.4959 1212.65 39.3313C1211.07 39.1666 1209.92 37.7423 1210.1 36.1792L1210.95 28.1039C1210.98 27.8183 1210.9 27.3889 1210.79 27.1409L1202.32 10.6899C1202.2 10.4307 1202.27 10.0791 1202.46 9.87597L1205.41 6.56236C1205.61 6.37039 1205.91 6.41049 1206.04 6.64552L1211.84 16.8176C1211.98 17.0638 1212.14 17.0197 1212.16 16.7517L1213.43 4.81047C1213.47 4.53601 1213.26 4.28213 1212.99 4.24674L1211.75 4.12518C1211.48 4.10098 1211.28 3.8471 1211.31 3.56145L1211.52 1.4512C1211.56 1.17674 1211.81 0.97006 1212.09 1.00545L1221.27 1.95775C1221.54 1.99314 1221.76 2.24055 1221.73 2.5262L1221.5 4.64293C1221.47 4.92857 1221.23 5.12878 1220.94 5.09987L1219.72 4.97183C1219.45 4.94763 1219.19 5.14313 1219.16 5.42877L1217.88 17.3588C1217.85 17.6444 1217.99 17.6998 1218.19 17.4967L1226 8.74832C1226.19 8.54516 1226.48 8.57407 1226.64 8.79614L1228.81 12.6431C1228.96 12.8605 1228.94 13.2262 1228.75 13.4406Z" fill="#DF1931"/>
<path d="M1231.04 12.1216L1249.31 9.1542C1249.59 9.09653 1250.03 9.15669 1250.29 9.27394L1257.72 12.5806C1259.16 13.2223 1260.87 12.5683 1261.51 11.1213C1262.16 9.67429 1261.5 7.96496 1260.06 7.33449L1252.64 4.03899C1252.37 3.92173 1252.04 3.63484 1251.89 3.41277L1241.87 -12.1445C1241.71 -12.3777 1241.37 -12.4962 1241.1 -12.4273L1236.75 -11.5311C1236.48 -11.4511 1236.37 -11.1778 1236.51 -10.9428L1242.42 -0.835488C1242.56 -0.589271 1242.44 -0.477975 1242.2 -0.590514L1231.22 -5.45925C1230.97 -5.56531 1230.85 -5.87101 1230.96 -6.1266L1231.47 -7.25852C1231.58 -7.50292 1231.47 -7.80862 1231.2 -7.92587L1229.27 -8.79261C1229.01 -8.89867 1228.71 -8.78153 1228.6 -8.52593L1224.83 -0.0995919C1224.73 0.156003 1224.83 0.46818 1225.1 0.585435L1227.04 1.4457C1227.31 1.56296 1227.6 1.45228 1227.72 1.19021L1228.22 0.064775C1228.33 -0.179628 1228.63 -0.307971 1228.9 -0.190716L1239.87 4.66682C1240.13 4.78408 1240.11 4.93014 1239.83 4.999L1228.35 7.39046C1228.08 7.45932 1227.96 7.72139 1228.07 7.96937L1230.32 11.7775C1230.43 12.0078 1230.76 12.1793 1231.04 12.1216Z" fill="#DF1931"/>
</g>
<g opacity="0.1">
<path d="M1159.12 90.5794L1152.25 73.423C1152.13 73.162 1152.09 72.7214 1152.15 72.4403L1153.77 64.4782C1154.08 62.9273 1153.07 61.4121 1151.51 61.0995C1149.96 60.7868 1148.43 61.8015 1148.13 63.3435L1146.52 71.2969C1146.46 71.578 1146.26 71.9625 1146.07 72.1651L1133.05 85.3247C1132.85 85.5361 1132.81 85.891 1132.94 86.1433L1134.76 90.1807C1134.9 90.4242 1135.19 90.4731 1135.39 90.2895L1143.98 82.3205C1144.19 82.1282 1144.32 82.2161 1144.27 82.479L1141.9 94.2415C1141.85 94.5139 1141.57 94.6944 1141.3 94.6462L1140.08 94.3935C1139.82 94.3367 1139.55 94.5172 1139.49 94.7983L1139.06 96.8748C1139.02 97.1471 1139.2 97.42 1139.47 97.4682L1148.52 99.2961C1148.8 99.3442 1149.08 99.1732 1149.14 98.8921L1149.55 96.8061C1149.61 96.525 1149.44 96.2616 1149.16 96.2039L1147.95 95.9608C1147.68 95.9039 1147.49 95.6397 1147.55 95.3586L1149.91 83.6049C1149.97 83.3238 1150.12 83.3117 1150.24 83.564L1155.08 94.2318C1155.21 94.4841 1155.49 94.5417 1155.71 94.3772L1158.94 91.3584C1159.14 91.193 1159.24 90.8405 1159.12 90.5794Z" fill="#DF1931"/>
<path d="M1117.78 109.617L1109.22 93.2091C1109.1 92.9497 1108.78 92.6341 1108.53 92.494L1101.43 88.5135C1100.05 87.7363 1099.55 85.9831 1100.33 84.6034C1101.1 83.2236 1102.87 82.7317 1104.24 83.5103L1111.33 87.4924C1111.58 87.6325 1112.01 87.726 1112.28 87.7203L1130.76 86.4692C1131.05 86.462 1131.35 86.6619 1131.46 86.9227L1133.34 90.9374C1133.44 91.1997 1133.28 91.4519 1133.01 91.4833L1121.36 92.7735C1121.08 92.8064 1121.06 92.9651 1121.3 93.0938L1131.78 98.987C1132.02 99.1286 1132.33 99.0398 1132.48 98.802L1133.08 97.716C1133.2 97.4796 1133.52 97.3908 1133.77 97.531L1135.63 98.5657C1135.87 98.7073 1135.95 99.0226 1135.81 99.2604L1131.31 107.301C1131.17 107.539 1130.85 107.64 1130.6 107.5L1128.75 106.453C1128.49 106.313 1128.41 106.01 1128.55 105.759L1129.15 104.686C1129.28 104.45 1129.2 104.133 1128.95 103.993L1118.48 98.0985C1118.22 97.9584 1118.12 98.0618 1118.23 98.3226L1123.19 108.949C1123.3 109.209 1123.16 109.46 1122.89 109.517L1118.49 109.99C1118.24 110.033 1117.91 109.876 1117.78 109.617Z" fill="#DF1931"/>
<path d="M1164.06 118.706L1178.2 106.76C1178.41 106.566 1178.81 106.391 1179.1 106.357L1187.18 105.36C1188.76 105.164 1189.88 103.728 1189.68 102.158C1189.49 100.588 1188.04 99.4642 1186.48 99.6669L1178.41 100.67C1178.12 100.704 1177.69 100.629 1177.44 100.52L1160.8 92.3685C1160.54 92.2537 1160.19 92.3262 1159.99 92.5264L1156.73 95.5299C1156.54 95.7363 1156.58 96.0275 1156.82 96.1586L1167.12 101.762C1167.37 101.899 1167.33 102.054 1167.06 102.083L1155.12 103.571C1154.85 103.612 1154.59 103.411 1154.55 103.137L1154.41 101.904C1154.38 101.637 1154.12 101.436 1153.83 101.47L1151.72 101.726C1151.45 101.767 1151.25 102.025 1151.29 102.298L1152.42 111.446C1152.46 111.719 1152.71 111.932 1152.99 111.898L1155.11 111.631C1155.39 111.596 1155.59 111.349 1155.56 111.064L1155.4 109.843C1155.38 109.576 1155.57 109.312 1155.85 109.277L1167.78 107.783C1168.06 107.748 1168.12 107.883 1167.92 108.084L1159.31 116.042C1159.11 116.243 1159.14 116.528 1159.37 116.681L1163.26 118.784C1163.48 118.92 1163.85 118.9 1164.06 118.706Z" fill="#DF1931"/>
</g>
<g opacity="0.1">
<path d="M982.447 40.4862L967.603 3.43063C967.349 2.86677 967.27 1.9152 967.394 1.30806L970.885 -15.8891C971.56 -19.2387 969.38 -22.5113 966.023 -23.1867C962.665 -23.862 959.366 -21.6704 958.712 -18.3398L955.242 -1.16147C955.117 -0.554332 954.667 0.276075 954.272 0.713757L926.137 29.1368C925.722 29.5933 925.63 30.3599 925.905 30.9049L929.837 39.625C930.131 40.151 930.76 40.2567 931.193 39.8601L949.752 22.6481C950.205 22.2326 950.494 22.4226 950.371 22.9903L945.25 48.3959C945.146 48.9841 944.556 49.374 943.966 49.2701L941.336 48.7242C940.767 48.6014 940.176 48.9913 940.052 49.5984L939.132 54.0834C939.028 54.6716 939.419 55.2611 940.009 55.365L959.564 59.3131C960.154 59.417 960.763 59.0477 960.888 58.4405L961.789 53.935C961.913 53.3279 961.541 52.759 960.932 52.6345L958.321 52.1093C957.752 51.9864 957.34 51.4159 957.464 50.8087L962.565 25.4221C962.689 24.8149 963.007 24.7889 963.281 25.3339L973.723 48.3748C973.997 48.9198 974.605 49.0443 975.076 48.6888L982.06 42.1687C982.491 41.8116 982.701 41.05 982.447 40.4862Z" fill="#DF1931"/>
<path d="M893.174 81.6044L874.672 46.1664C874.408 45.6062 873.736 44.9247 873.194 44.622L857.848 36.0245C854.863 34.346 853.794 30.5593 855.467 27.5793C857.14 24.5992 860.954 23.5366 863.911 25.2184L879.229 33.8191C879.772 34.1217 880.696 34.3237 881.286 34.3114L921.21 31.6091C921.827 31.5936 922.47 32.0253 922.705 32.5888L926.774 41.2598C926.982 41.8265 926.653 42.3713 926.07 42.4391L900.902 45.2257C900.292 45.2967 900.248 45.6394 900.759 45.9176L923.406 58.646C923.92 58.9519 924.601 58.7601 924.906 58.2463L926.204 55.9008C926.481 55.3902 927.162 55.1985 927.704 55.5012L931.713 57.736C932.227 58.0419 932.421 58.7228 932.116 59.2366L922.385 76.6031C922.08 77.1169 921.402 77.3364 920.86 77.0337L916.848 74.7711C916.306 74.4684 916.116 73.8153 916.417 73.2737L917.718 70.9559C917.995 70.4454 917.83 69.7612 917.287 69.4585L894.669 56.7269C894.126 56.4243 893.899 56.6476 894.135 57.2111L904.852 80.1618C905.087 80.7253 904.786 81.2668 904.209 81.3901L894.705 82.4111C894.154 82.5035 893.438 82.1646 893.174 81.6044Z" fill="#DF1931"/>
<path d="M932.774 129.343L893.364 136.051C892.75 136.129 891.896 136.558 891.442 136.981L878.573 148.932C876.063 151.255 872.129 151.108 869.799 148.602C867.469 146.096 867.618 142.143 870.122 139.847L882.986 127.924C883.439 127.501 883.914 126.684 884.081 126.12L893.671 87.3263C893.844 86.7345 894.451 86.2564 895.06 86.2054L904.563 85.0004C905.167 84.9768 905.586 85.4573 905.473 86.0324L900.46 110.819C900.342 111.422 900.655 111.569 901.076 111.168L920.106 93.5443C920.554 93.1488 920.579 92.4426 920.182 91.9948L918.343 90.0403C917.94 89.62 917.965 88.9137 918.419 88.4908L921.77 85.366C922.218 84.9705 922.926 84.9958 923.323 85.4435L936.908 100.032C937.305 100.479 937.308 101.191 936.854 101.614L933.475 104.733C933.022 105.156 932.341 105.136 931.917 104.683L930.105 102.734C929.703 102.314 929 102.261 928.546 102.684L909.521 120.28C909.068 120.703 909.211 120.987 909.82 120.936L934.957 117.797C935.566 117.746 935.99 118.199 935.932 118.785L934.01 128.135C933.929 128.689 933.388 129.265 932.774 129.343Z" fill="#DF1931"/>
<path d="M938.372 130.443L972.315 151.563C972.854 151.868 973.482 152.588 973.742 153.152L981.133 169.083C982.577 172.182 986.275 173.535 989.38 172.097C992.485 170.659 993.842 166.943 992.393 163.871L984.997 147.967C984.737 147.404 984.607 146.468 984.665 145.882L990.466 106.344C990.53 105.731 990.149 105.059 989.604 104.781L981.264 100.07C980.714 99.82 980.144 100.106 980.031 100.682L975.293 125.522C975.175 126.125 974.829 126.142 974.591 125.612L963.644 102.098C963.378 101.563 963.623 100.899 964.159 100.635L966.602 99.5221C967.133 99.2851 967.377 98.622 967.117 98.0588L965.198 93.8984C964.932 93.3626 964.268 93.1182 963.731 93.3826L945.636 101.746C945.099 102.01 944.828 102.668 945.088 103.231L947.035 107.397C947.295 107.96 947.932 108.199 948.496 107.94L950.911 106.822C951.443 106.585 952.113 106.802 952.373 107.365L963.326 130.852C963.586 131.415 963.345 131.623 962.801 131.346L940.72 118.929C940.176 118.651 939.612 118.91 939.444 119.474L937.686 128.857C937.551 129.4 937.834 130.138 938.372 130.443Z" fill="#DF1931"/>
<path d="M993.119 101.237L1023.65 75.4338C1024.11 75.0149 1024.99 74.6382 1025.61 74.5633L1043.06 72.411C1046.46 71.9868 1048.89 68.8859 1048.46 65.4945C1048.04 62.1032 1044.92 59.6765 1041.54 60.1142L1024.11 62.28C1023.49 62.3549 1022.56 62.1921 1022.02 61.9576L986.084 44.3506C985.518 44.1026 984.76 44.2593 984.329 44.6917L977.282 51.1788C976.875 51.6246 976.974 52.2535 977.488 52.5368L999.73 64.6385C1000.27 64.9353 1000.18 65.2691 999.601 65.333L973.822 68.5468C973.23 68.6352 972.672 68.2002 972.584 67.6092L972.27 64.947C972.207 64.3696 971.649 63.9345 971.033 64.0094L966.477 64.5616C965.885 64.65 965.448 65.2071 965.536 65.7981L967.973 85.5553C968.061 86.1463 968.605 86.6058 969.221 86.5309L973.791 85.9543C974.408 85.8794 974.831 85.3467 974.756 84.7313L974.429 82.0936C974.366 81.5161 974.778 80.9455 975.395 80.8706L1001.15 77.6433C1001.77 77.5684 1001.89 77.8609 1001.46 78.2933L982.856 95.4833C982.425 95.9156 982.499 96.531 982.986 96.8632L991.397 101.404C991.873 101.698 992.664 101.656 993.119 101.237Z" fill="#DF1931"/>
</g>
<g opacity="0.1">
<path d="M520.145 -10.4679L498.613 -14.7979C498.277 -14.8511 497.815 -15.1014 497.573 -15.3416L490.708 -22.1299C489.369 -23.4496 487.206 -23.4321 485.883 -22.0899C484.561 -20.7477 484.576 -18.5686 485.912 -17.264L492.775 -10.4909C493.017 -10.2507 493.264 -9.79309 493.346 -9.47961L497.955 12.0365C498.04 12.3651 498.365 12.6382 498.699 12.6761L503.898 13.4932C504.229 13.516 504.467 13.2581 504.415 12.9396L502.082 -0.790074C502.027 -1.12377 502.202 -1.1996 502.426 -0.972056L512.579 9.03975C512.819 9.26477 512.821 9.65408 512.595 9.89421L511.551 10.9407C511.323 11.1657 511.325 11.555 511.567 11.7951L513.355 13.57C513.594 13.795 513.983 13.7925 514.209 13.5524L521.918 5.73916C522.143 5.49902 522.157 5.10719 521.915 4.867L520.112 3.09471C519.87 2.85453 519.496 2.85449 519.256 3.09715L518.227 4.1411C517.999 4.36607 517.612 4.38373 517.37 4.14354L507.22 -5.8531C506.978 -6.09328 507.061 -6.24748 507.395 -6.20952L521.148 -4.07453C521.482 -4.03657 521.722 -4.27924 521.7 -4.60282L520.803 -9.78273C520.768 -10.0886 520.481 -10.4148 520.145 -10.4679Z" fill="#DF1931"/>
<path d="M512.177 43.0186L490.288 40.8599C489.951 40.8124 489.435 40.9164 489.132 41.0749L480.551 45.5492C478.878 46.4179 476.813 45.769 475.945 44.1011C475.077 42.4332 475.737 40.3573 477.402 39.5023L485.977 35.0418C486.28 34.8832 486.651 34.5184 486.823 34.2433L497.608 15.0491C497.786 14.7602 498.179 14.5946 498.509 14.6558L503.727 15.3952C504.05 15.4702 504.202 15.786 504.057 16.0748L497.758 28.5006C497.607 28.8032 497.751 28.9266 498.033 28.7749L510.716 22.184C511.012 22.0392 511.129 21.668 510.984 21.3728L510.295 20.0688C510.144 19.7874 510.261 19.4162 510.563 19.2576L512.8 18.0856C513.096 17.9408 513.468 18.0569 513.612 18.3521L518.675 28.0642C518.82 28.3593 518.717 28.7374 518.414 28.8959L516.164 30.0611C515.861 30.2197 515.503 30.1104 515.345 29.8084L514.67 28.5111C514.518 28.2297 514.153 28.0999 513.85 28.2584L501.175 34.8356C500.872 34.9941 500.906 35.1658 501.237 35.2271L515.031 37.2081C515.362 37.2694 515.52 37.5714 515.403 37.8739L513.01 42.5568C512.886 42.8387 512.515 43.0661 512.177 43.0186Z" fill="#DF1931"/>
<path d="M546.087 39.1713L537.302 59.3353C537.153 59.6417 537.093 60.1644 537.151 60.5007L538.775 70.0256C539.089 71.8808 537.836 73.6477 535.98 73.9655C534.124 74.2833 532.349 73.0235 532.047 71.1791L530.433 61.6649C530.375 61.3286 530.142 60.8641 529.933 60.6168L514.963 44.5143C514.743 44.2562 514.705 43.8327 514.865 43.537L517.174 38.799C517.345 38.514 517.692 38.466 517.923 38.6913L527.824 48.4669C528.065 48.703 528.227 48.603 528.17 48.2884L525.79 34.2177C525.743 33.8921 525.425 33.6679 525.099 33.7157L523.645 33.9739C523.331 34.0324 523.013 33.8082 522.955 33.4719L522.526 30.9877C522.479 30.6621 522.704 30.3438 523.03 30.2961L533.839 28.4369C534.164 28.3892 534.493 28.6023 534.551 28.9386L534.969 31.4339C535.027 31.7702 534.813 32.0774 534.476 32.1362L533.033 32.3834C532.718 32.4418 532.482 32.7494 532.54 33.0857L534.909 47.1457C534.967 47.482 535.141 47.5015 535.301 47.2058L541.429 34.6874C541.589 34.3917 541.926 34.3329 542.178 34.5362L545.903 38.2386C546.134 38.4422 546.236 38.8649 546.087 39.1713Z" fill="#DF1931"/>
<path d="M548.28 36.9252L568.229 27.6619C568.532 27.5057 569.053 27.4336 569.39 27.4836L578.951 28.8808C580.813 29.15 582.55 27.8552 582.823 25.9924C583.097 24.1296 581.795 22.3853 579.944 22.1268L570.394 20.7403C570.057 20.6903 569.587 20.4681 569.335 20.2649L552.88 5.68221C552.617 5.46819 552.193 5.44112 551.901 5.60803L547.219 8.02859C546.939 8.20622 546.899 8.55467 547.13 8.77998L557.138 18.4455C557.38 18.6815 557.284 18.8458 556.968 18.7956L542.844 16.7513C542.518 16.7121 542.286 16.3998 542.326 16.0731L542.55 14.6132C542.601 14.2973 542.369 13.985 542.031 13.935L539.538 13.5653C539.211 13.5261 538.898 13.7585 538.858 14.0852L537.257 24.9354C537.217 25.2621 537.438 25.5854 537.775 25.6353L540.28 25.994C540.617 26.0439 540.92 25.8225 540.97 25.4848L541.183 24.036C541.234 23.72 541.536 23.4769 541.873 23.5268L555.986 25.5604C556.323 25.6103 556.347 25.784 556.055 25.9509L543.686 32.3752C543.394 32.5421 543.344 32.8798 543.553 33.1272L547.343 36.7635C547.552 36.9891 547.977 37.0814 548.28 36.9252Z" fill="#DF1931"/>
<path d="M551.329 2.92161L548.65 -18.91C548.594 -19.246 548.686 -19.7646 548.837 -20.071L553.106 -28.7564C553.935 -30.4489 553.237 -32.498 551.549 -33.3261C549.861 -34.1541 547.801 -33.445 546.986 -31.7598L542.731 -23.0816C542.579 -22.7751 542.224 -22.395 541.953 -22.2165L523.021 -10.9782C522.736 -10.7926 522.58 -10.3965 522.649 -10.0676L523.512 -4.86897C523.595 -4.54731 523.914 -4.40331 524.2 -4.55456L536.472 -11.1482C536.771 -11.3066 536.898 -11.165 536.753 -10.8793L530.466 1.9567C530.328 2.25597 529.959 2.38163 529.661 2.24403L528.341 1.5864C528.056 1.44159 527.688 1.56724 527.536 1.87372L526.418 4.13749C526.28 4.43676 526.405 4.80563 526.704 4.94323L536.533 9.77386C536.832 9.91146 537.207 9.79941 537.359 9.49293L538.47 7.21556C538.621 6.90908 538.504 6.55381 538.198 6.40261L536.885 5.75858C536.6 5.61377 536.462 5.2521 536.613 4.94563L542.886 -7.88319C543.038 -8.18967 543.21 -8.15927 543.279 -7.83041L545.588 5.9131C545.657 6.24197 545.963 6.39317 546.262 6.26912L550.887 3.76502C551.166 3.63457 551.384 3.25767 551.329 2.92161Z" fill="#DF1931"/>
</g>
<g opacity="0.1">
<path d="M363.996 59.4538L346.34 30.1776C346.048 29.7359 345.85 28.9424 345.872 28.4121L346.452 13.3944C346.56 10.4701 344.267 8.00425 341.336 7.89619C338.405 7.78812 335.918 10.0954 335.824 13.0009L335.259 27.9997C335.237 28.5301 334.971 29.2941 334.698 29.7184L314.833 57.622C314.545 58.0651 314.574 58.7257 314.88 59.1486L319.406 65.9775C319.728 66.3816 320.274 66.3842 320.585 65.9893L333.9 48.8822C334.226 48.4686 334.496 48.5894 334.471 49.0862L333.644 71.2669C333.637 71.7784 333.192 72.1894 332.679 72.1828L330.38 72.084C329.882 72.0586 329.437 72.4695 329.416 72.9999L329.256 76.9178C329.249 77.4293 329.661 77.8736 330.174 77.8802L347.248 78.522C347.761 78.5286 348.225 78.1324 348.246 77.6021L348.387 73.6694C348.408 73.1391 348.015 72.7095 347.484 72.6882L345.204 72.6041C344.706 72.5787 344.28 72.1532 344.301 71.6228L345.113 49.4609C345.135 48.9306 345.4 48.8647 345.707 49.2876L357.708 67.3246C358.015 67.7474 358.547 67.7688 358.895 67.4035L363.9 60.9294C364.215 60.5682 364.288 59.8955 363.996 59.4538Z" fill="#DF1931"/>
<path d="M294.208 106.517L273.683 79.1121C273.383 78.6749 272.721 78.1914 272.221 78.0103L258.065 72.8582C255.31 71.8509 253.885 68.7973 254.888 66.0478C255.891 63.2983 258.968 61.8744 261.7 62.8883L275.834 68.047C276.334 68.228 277.143 68.2713 277.64 68.1796L311.015 60.3924C311.534 60.2942 312.137 60.5706 312.414 61.0144L317.048 67.7831C317.302 68.2334 317.099 68.7393 316.615 68.877L295.726 74.7014C295.219 74.8456 295.23 75.1413 295.7 75.306L316.597 82.9435C317.075 83.1312 317.624 82.8753 317.811 82.3989L318.584 80.2374C318.748 79.7677 319.297 79.5117 319.797 79.6928L323.494 81.0294C323.971 81.217 324.228 81.7659 324.041 82.2422L318.21 98.2631C318.023 98.7395 317.48 99.0184 316.98 98.8373L313.277 97.4777C312.777 97.2966 312.526 96.7707 312.706 96.2714L313.487 94.1329C313.65 93.6631 313.416 93.1077 312.916 92.9266L292.042 85.2825C291.542 85.1014 291.381 85.3214 291.658 85.7652L303.88 103.688C304.157 104.132 303.976 104.631 303.506 104.815L295.613 106.988C295.159 107.142 294.508 106.954 294.208 106.517Z" fill="#DF1931"/>
<path d="M381.393 109.335L403.647 83.3154C403.975 82.8985 404.666 82.4589 405.177 82.3106L419.637 78.085C422.451 77.2579 424.071 74.303 423.248 71.4943C422.425 68.6857 419.446 67.0657 416.654 67.9007L402.217 72.1344C401.706 72.2827 400.896 72.2735 400.406 72.1499L367.605 62.22C367.092 62.0884 366.473 62.3253 366.168 62.7502L361.106 69.205C360.823 69.6379 360.993 70.1559 361.467 70.3245L381.936 77.4881C382.432 77.6647 382.403 77.9592 381.922 78.093L360.575 84.3628C360.086 84.5192 359.555 84.2283 359.399 83.7409L358.767 81.5338C358.634 81.0545 358.103 80.7636 357.592 80.9119L353.817 82.0066C353.328 82.1629 353.036 82.694 353.192 83.1815L357.975 99.546C358.131 100.033 358.654 100.347 359.165 100.199L362.948 99.0813C363.459 98.933 363.743 98.4244 363.596 97.9145L362.955 95.73C362.822 95.2506 363.092 94.7114 363.603 94.5631L384.928 88.2853C385.439 88.137 385.585 88.3669 385.28 88.7919L371.924 105.886C371.619 106.311 371.767 106.821 372.224 107.035L379.96 109.714C380.403 109.897 381.065 109.752 381.393 109.335Z" fill="#DF1931"/>
</g>
</g>
<defs>
<clipPath id="clip0_5962_199367">
<rect width="1440" height="100" fill="white"/>
</clipPath>
<clipPath id="clip1_5962_199367">
<rect width="182" height="47.283" fill="white" transform="translate(630 12)"/>
</clipPath>
</defs>
</svg>
